# xmcd
#
# Track frame offsets: 
#        150
#        10874
#        24223
#        32762
#        43430
#        61740
#        73459
#        87769
#        100417
#        128345
#        150708
#
# Disc length: 2247 seconds
#
# Revision: 0
# Processed by: cddbd v1.5.2PL0 Copyright (c) Steve Scherf et al.
# Submitted via: ExactAudioCopy v0.99pb4
#
DISCID=8708c50b
DTITLE=Ryan Adams - When The Music Don't Come
DYEAR=2003
DGENRE=Alt. Rock
TTITLE0=The Skylarks - Lucky Star
TTITLE1=The Skylarks - Texas
TTITLE2=Ryan Adams - Lay Your Hand On The Coffin
TTITLE3=Ryan Adams - Barter Town
TTITLE4=Ryan Adams - Messengers Of God (aka Faithless Street)
TTITLE5=Whiskeytown - Only to Lose
TTITLE6=Whiskeytown - New York Angel
TTITLE7=Whiskeytown - Hipshake
TTITLE8=Whiskeytown - All You Can Feel
TTITLE9=Ryan Adams - When The Music Don't Come
TTITLE10=Ryan Adams - I See Monsters (alt. version)
EXTD=
EXTT0=
EXTT1=
EXTT2=
EXTT3=
EXTT4=
EXTT5=
EXTT6=
EXTT7=
EXTT8=
EXTT9=
EXTT10=
PLAYORDER=
